<svg xmlns="http://www.w3.org/2000/svg" xmlns:xlink="http://www.w3.org/1999/xlink" width="71" zoomAndPan="magnify" viewBox="0 0 53.25 36.000001" height="48" preserveAspectRatio="xMidYMid meet" version="1.0"><defs><clipPath id="f50903c102"><path d="M 5 0 L 52.164062 0 L 52.164062 35.027344 L 5 35.027344 Z M 5 0 " clip-rule="nonzero"/></clipPath><clipPath id="f4575ed0bf"><path d="M 36.308594 9.46875 L 44.183594 9.46875 L 44.183594 17.34375 L 36.308594 17.34375 Z M 36.308594 9.46875 " clip-rule="nonzero"/></clipPath><clipPath id="68b557f7b2"><path d="M 40.246094 9.46875 C 38.070312 9.46875 36.308594 11.230469 36.308594 13.40625 C 36.308594 15.582031 38.070312 17.34375 40.246094 17.34375 C 42.421875 17.34375 44.183594 15.582031 44.183594 13.40625 C 44.183594 11.230469 42.421875 9.46875 40.246094 9.46875 Z M 40.246094 9.46875 " clip-rule="nonzero"/></clipPath></defs><g clip-path="url(#f50903c102)"><path fill="#000000" d="M 32.609375 0 L 32.609375 10.609375 L 18.070312 10.609375 C 4.867188 10.609375 0.355469 28.460938 11.886719 35.027344 C 6.039062 30.480469 9.046875 20.882812 16.566406 20.882812 C 21.914062 20.882812 27.261719 20.882812 32.609375 20.882812 L 32.609375 31.492188 L 52.164062 15.828125 Z M 32.609375 0 " fill-opacity="1" fill-rule="evenodd"/></g><g clip-path="url(#f4575ed0bf)"><g clip-path="url(#68b557f7b2)"><path fill="#000000" d="M 36.308594 9.46875 L 44.183594 9.46875 L 44.183594 17.34375 L 36.308594 17.34375 Z M 36.308594 9.46875 " fill-opacity="1" fill-rule="nonzero"/></g></g></svg>