<svg xmlns="http://www.w3.org/2000/svg" xmlns:xlink="http://www.w3.org/1999/xlink" width="71" zoomAndPan="magnify" viewBox="0 0 53.25 36.000001" height="48" preserveAspectRatio="xMidYMid meet" version="1.0"><defs><clipPath id="34c80a79dc"><path d="M 0.355469 0 L 48 0 L 48 34.296875 L 0.355469 34.296875 Z M 0.355469 0 " clip-rule="nonzero"/></clipPath><clipPath id="def058807a"><path d="M 8.140625 13.234375 L 16.285156 13.234375 L 16.285156 21.382812 L 8.140625 21.382812 Z M 8.140625 13.234375 " clip-rule="nonzero"/></clipPath><clipPath id="b8031b9e1c"><path d="M 12.214844 13.234375 C 9.964844 13.234375 8.140625 15.058594 8.140625 17.308594 C 8.140625 19.558594 9.964844 21.382812 12.214844 21.382812 C 14.460938 21.382812 16.285156 19.558594 16.285156 17.308594 C 16.285156 15.058594 14.460938 13.234375 12.214844 13.234375 Z M 12.214844 13.234375 " clip-rule="nonzero"/></clipPath></defs><g clip-path="url(#34c80a79dc)"><path fill="#000000" d="M 19.847656 0.0078125 L 19.847656 10.390625 L 34.339844 10.390625 C 47.667969 10.390625 52.164062 27.859375 40.503906 34.289062 C 46.335938 29.839844 43.335938 20.445312 35.839844 20.445312 C 30.507812 20.445312 25.175781 20.445312 19.847656 20.445312 L 19.847656 30.828125 L 0.355469 15.5 Z M 19.847656 0.0078125 " fill-opacity="1" fill-rule="evenodd"/></g><g clip-path="url(#def058807a)"><g clip-path="url(#b8031b9e1c)"><path fill="#000000" d="M 8.140625 13.234375 L 16.285156 13.234375 L 16.285156 21.382812 L 8.140625 21.382812 Z M 8.140625 13.234375 " fill-opacity="1" fill-rule="nonzero"/></g></g></svg>